<mxfile host="Electron" modified="2024-03-07T02:39:12.207Z" agent="Mozilla/5.0 (Windows NT 10.0; Win64; x64) AppleWebKit/537.36 (KHTML, like Gecko) draw.io/23.1.5 Chrome/120.0.6099.109 Electron/28.1.0 Safari/537.36" etag="p4ULCCkFgCnrx537FrHB" version="23.1.5" type="device">
  <diagram name="Trang-1" id="FCe38diXOvzu6upE-rqK">
    <mxGraphModel dx="1050" dy="621" grid="1" gridSize="10" guides="1" tooltips="1" connect="1" arrows="1" fold="1" page="1" pageScale="1" pageWidth="827" pageHeight="1169" math="0" shadow="0">
      <root>
        <mxCell id="0" />
        <mxCell id="1" parent="0" />
        <mxCell id="nnjHsGUo45msYtI8U3mC-4" value="AWS Cloud&lt;div&gt;&lt;br/&gt;&lt;/div&gt;" style="points=[[0,0],[0.25,0],[0.5,0],[0.75,0],[1,0],[1,0.25],[1,0.5],[1,0.75],[1,1],[0.75,1],[0.5,1],[0.25,1],[0,1],[0,0.75],[0,0.5],[0,0.25]];outlineConnect=0;gradientColor=none;html=1;whiteSpace=wrap;fontSize=12;fontStyle=0;container=1;pointerEvents=0;collapsible=0;recursiveResize=0;shape=mxgraph.aws4.group;grIcon=mxgraph.aws4.group_aws_cloud_alt;strokeColor=#232F3E;fillColor=none;verticalAlign=top;align=left;spacingLeft=30;fontColor=#232F3E;dashed=0;" parent="1" vertex="1">
          <mxGeometry x="110" y="590" width="825" height="510" as="geometry" />
        </mxCell>
        <mxCell id="J6I5ncBZ0QF79zNnHjYC-4" value="Region Singapore" style="points=[[0,0],[0.25,0],[0.5,0],[0.75,0],[1,0],[1,0.25],[1,0.5],[1,0.75],[1,1],[0.75,1],[0.5,1],[0.25,1],[0,1],[0,0.75],[0,0.5],[0,0.25]];outlineConnect=0;gradientColor=none;html=1;whiteSpace=wrap;fontSize=12;fontStyle=0;container=1;pointerEvents=0;collapsible=0;recursiveResize=0;shape=mxgraph.aws4.group;grIcon=mxgraph.aws4.group_region;strokeColor=#007FFF;fillColor=none;verticalAlign=top;align=left;spacingLeft=30;fontColor=#147EBA;dashed=1;" parent="nnjHsGUo45msYtI8U3mC-4" vertex="1">
          <mxGeometry x="42.5" y="35" width="757.5" height="440" as="geometry" />
        </mxCell>
        <mxCell id="J6I5ncBZ0QF79zNnHjYC-8" value="&lt;font color=&quot;#000000&quot;&gt;VPC 10.10.0.0/16&lt;/font&gt;" style="sketch=0;outlineConnect=0;gradientColor=none;html=1;whiteSpace=wrap;fontSize=12;fontStyle=0;shape=mxgraph.aws4.group;grIcon=mxgraph.aws4.group_vpc;strokeColor=#009900;fillColor=none;verticalAlign=top;align=left;spacingLeft=30;fontColor=#879196;dashed=0;labelBackgroundColor=default;" parent="J6I5ncBZ0QF79zNnHjYC-4" vertex="1">
          <mxGeometry x="110" y="20" width="610" height="400" as="geometry" />
        </mxCell>
        <mxCell id="J6I5ncBZ0QF79zNnHjYC-9" value="Availability Zone" style="fillColor=none;strokeColor=#147EBA;dashed=1;verticalAlign=top;fontStyle=0;fontColor=#147EBA;whiteSpace=wrap;html=1;labelBackgroundColor=default;labelBorderColor=none;" parent="J6I5ncBZ0QF79zNnHjYC-4" vertex="1">
          <mxGeometry x="98.75" y="50" width="632.5" height="163" as="geometry" />
        </mxCell>
        <mxCell id="q3eveAdh_XP9QXqwKjd4-7" value="Availability Zone" style="fillColor=none;strokeColor=#147EBA;dashed=1;verticalAlign=top;fontStyle=0;fontColor=#147EBA;whiteSpace=wrap;html=1;" vertex="1" parent="J6I5ncBZ0QF79zNnHjYC-4">
          <mxGeometry x="98.75" y="238.5" width="632.5" height="163" as="geometry" />
        </mxCell>
        <mxCell id="FloxPo64qK9T8YD7EDsa-7" value="Public subnet 1&lt;br&gt;10.10.1.0/24" style="points=[[0,0],[0.25,0],[0.5,0],[0.75,0],[1,0],[1,0.25],[1,0.5],[1,0.75],[1,1],[0.75,1],[0.5,1],[0.25,1],[0,1],[0,0.75],[0,0.5],[0,0.25]];outlineConnect=0;gradientColor=none;html=1;whiteSpace=wrap;fontSize=12;fontStyle=0;container=1;pointerEvents=0;collapsible=0;recursiveResize=0;shape=mxgraph.aws4.group;grIcon=mxgraph.aws4.group_security_group;grStroke=0;strokeColor=#7AA116;fillColor=#F2F6E8;verticalAlign=top;align=left;spacingLeft=30;fontColor=#248814;dashed=0;" parent="J6I5ncBZ0QF79zNnHjYC-4" vertex="1">
          <mxGeometry x="227.5" y="61.5" width="135" height="135" as="geometry" />
        </mxCell>
        <mxCell id="J6I5ncBZ0QF79zNnHjYC-11" value="Private subnet 1&lt;br&gt;10.10.3.0/24" style="points=[[0,0],[0.25,0],[0.5,0],[0.75,0],[1,0],[1,0.25],[1,0.5],[1,0.75],[1,1],[0.75,1],[0.5,1],[0.25,1],[0,1],[0,0.75],[0,0.5],[0,0.25]];outlineConnect=0;gradientColor=none;html=1;whiteSpace=wrap;fontSize=12;fontStyle=0;container=1;pointerEvents=0;collapsible=0;recursiveResize=0;shape=mxgraph.aws4.group;grIcon=mxgraph.aws4.group_security_group;grStroke=0;strokeColor=#007FFF;fillColor=#E6F6F7;verticalAlign=top;align=left;spacingLeft=30;fontColor=#147EBA;dashed=0;" parent="J6I5ncBZ0QF79zNnHjYC-4" vertex="1">
          <mxGeometry x="507.5" y="61.5" width="135" height="135" as="geometry" />
        </mxCell>
        <mxCell id="q3eveAdh_XP9QXqwKjd4-2" value="Public subnet 1&lt;br&gt;10.10.1.0/24" style="points=[[0,0],[0.25,0],[0.5,0],[0.75,0],[1,0],[1,0.25],[1,0.5],[1,0.75],[1,1],[0.75,1],[0.5,1],[0.25,1],[0,1],[0,0.75],[0,0.5],[0,0.25]];outlineConnect=0;gradientColor=none;html=1;whiteSpace=wrap;fontSize=12;fontStyle=0;container=1;pointerEvents=0;collapsible=0;recursiveResize=0;shape=mxgraph.aws4.group;grIcon=mxgraph.aws4.group_security_group;grStroke=0;strokeColor=#7AA116;fillColor=#F2F6E8;verticalAlign=top;align=left;spacingLeft=30;fontColor=#248814;dashed=0;" vertex="1" parent="J6I5ncBZ0QF79zNnHjYC-4">
          <mxGeometry x="227.5" y="245" width="135" height="135" as="geometry" />
        </mxCell>
        <mxCell id="q3eveAdh_XP9QXqwKjd4-5" value="Private subnet 1&lt;br&gt;10.10.3.0/24" style="points=[[0,0],[0.25,0],[0.5,0],[0.75,0],[1,0],[1,0.25],[1,0.5],[1,0.75],[1,1],[0.75,1],[0.5,1],[0.25,1],[0,1],[0,0.75],[0,0.5],[0,0.25]];outlineConnect=0;gradientColor=none;html=1;whiteSpace=wrap;fontSize=12;fontStyle=0;container=1;pointerEvents=0;collapsible=0;recursiveResize=0;shape=mxgraph.aws4.group;grIcon=mxgraph.aws4.group_security_group;grStroke=0;strokeColor=#007FFF;fillColor=#E6F6F7;verticalAlign=top;align=left;spacingLeft=30;fontColor=#147EBA;dashed=0;" vertex="1" parent="J6I5ncBZ0QF79zNnHjYC-4">
          <mxGeometry x="507.5" y="245" width="135" height="135" as="geometry" />
        </mxCell>
        <mxCell id="q3eveAdh_XP9QXqwKjd4-6" value="&amp;nbsp;EC2 Private&amp;nbsp;" style="sketch=0;points=[[0,0,0],[0.25,0,0],[0.5,0,0],[0.75,0,0],[1,0,0],[0,1,0],[0.25,1,0],[0.5,1,0],[0.75,1,0],[1,1,0],[0,0.25,0],[0,0.5,0],[0,0.75,0],[1,0.25,0],[1,0.5,0],[1,0.75,0]];outlineConnect=0;fontColor=#232F3E;fillColor=#ED7100;strokeColor=#ffffff;dashed=0;verticalLabelPosition=bottom;verticalAlign=top;align=center;html=1;fontSize=12;fontStyle=0;aspect=fixed;shape=mxgraph.aws4.resourceIcon;resIcon=mxgraph.aws4.ec2;labelBackgroundColor=default;labelBorderColor=#FF8000;" vertex="1" parent="q3eveAdh_XP9QXqwKjd4-5">
          <mxGeometry x="37.5" y="45" width="60" height="60" as="geometry" />
        </mxCell>
        <mxCell id="FloxPo64qK9T8YD7EDsa-19" value="Internet Gateway" style="sketch=0;outlineConnect=0;fontColor=#232F3E;gradientColor=none;fillColor=#8C4FFF;strokeColor=none;dashed=0;verticalLabelPosition=bottom;verticalAlign=top;align=center;html=1;fontSize=12;fontStyle=0;aspect=fixed;pointerEvents=1;shape=mxgraph.aws4.internet_gateway;labelBackgroundColor=default;labelBorderColor=#007FFF;" parent="J6I5ncBZ0QF79zNnHjYC-4" vertex="1">
          <mxGeometry x="132.5" y="196.5" width="60" height="60" as="geometry" />
        </mxCell>
        <mxCell id="q3eveAdh_XP9QXqwKjd4-114" style="edgeStyle=orthogonalEdgeStyle;rounded=0;orthogonalLoop=1;jettySize=auto;html=1;" edge="1" parent="J6I5ncBZ0QF79zNnHjYC-4" source="J6I5ncBZ0QF79zNnHjYC-16" target="FloxPo64qK9T8YD7EDsa-19">
          <mxGeometry relative="1" as="geometry">
            <Array as="points">
              <mxPoint x="295" y="225" />
            </Array>
          </mxGeometry>
        </mxCell>
        <mxCell id="J6I5ncBZ0QF79zNnHjYC-16" value="&amp;nbsp;EC2 Public&amp;nbsp;" style="sketch=0;points=[[0,0,0],[0.25,0,0],[0.5,0,0],[0.75,0,0],[1,0,0],[0,1,0],[0.25,1,0],[0.5,1,0],[0.75,1,0],[1,1,0],[0,0.25,0],[0,0.5,0],[0,0.75,0],[1,0.25,0],[1,0.5,0],[1,0.75,0]];outlineConnect=0;fontColor=#232F3E;fillColor=#ED7100;strokeColor=#ffffff;dashed=0;verticalLabelPosition=bottom;verticalAlign=top;align=center;html=1;fontSize=12;fontStyle=0;aspect=fixed;shape=mxgraph.aws4.resourceIcon;resIcon=mxgraph.aws4.ec2;labelBackgroundColor=default;labelBorderColor=#FF8000;" parent="J6I5ncBZ0QF79zNnHjYC-4" vertex="1">
          <mxGeometry x="265" y="104" width="60" height="60" as="geometry" />
        </mxCell>
        <mxCell id="J6I5ncBZ0QF79zNnHjYC-14" style="edgeStyle=orthogonalEdgeStyle;rounded=0;orthogonalLoop=1;jettySize=auto;html=1;curved=0;strokeColor=none;" parent="1" edge="1">
          <mxGeometry relative="1" as="geometry">
            <mxPoint x="48.18181818181802" y="970" as="sourcePoint" />
            <mxPoint x="120" y="970.0000000000002" as="targetPoint" />
          </mxGeometry>
        </mxCell>
        <mxCell id="q3eveAdh_XP9QXqwKjd4-14" value="Internet" style="image;aspect=fixed;perimeter=ellipsePerimeter;html=1;align=center;shadow=0;dashed=0;spacingTop=3;image=img/lib/active_directory/internet_cloud.svg;labelBorderColor=default;labelBackgroundColor=default;" vertex="1" parent="1">
          <mxGeometry x="280" y="480" width="70" height="44.1" as="geometry" />
        </mxCell>
        <mxCell id="q3eveAdh_XP9QXqwKjd4-115" style="edgeStyle=orthogonalEdgeStyle;rounded=0;orthogonalLoop=1;jettySize=auto;html=1;entryX=0.5;entryY=1;entryDx=0;entryDy=0;" edge="1" parent="1" source="FloxPo64qK9T8YD7EDsa-19" target="q3eveAdh_XP9QXqwKjd4-14">
          <mxGeometry relative="1" as="geometry" />
        </mxCell>
      </root>
    </mxGraphModel>
  </diagram>
</mxfile>
